<?xml version="1.0"?>
<svg xmlns="http://www.w3.org/2000/svg" xmlns:xlink="http://www.w3.org/1999/xlink" xmlns:svgjs="http://svgjs.com/svgjs" version="1.1" width="512" height="512" x="0" y="0" viewBox="0 0 503.528 503.528" style="enable-background:new 0 0 512 512" xml:space="preserve" class=""><g>
<g xmlns="http://www.w3.org/2000/svg">
	<path d="M474.269,365.443v-4.321c0-7.621-0.997-15.14-2.94-22.418c24.618-28.88,23.304-72.432-3.983-99.72   c-1.407-1.406-3.314-2.197-5.304-2.197s-3.896,0.79-5.304,2.197l-29.206,29.206c-5.123-5.283-12.238-8.403-19.927-8.403   c-6.094,0-11.92,1.995-16.666,5.555c-10.71-9.923-24.742-15.485-39.579-15.485c-32.166,0-58.335,26.169-58.335,58.335   c0,11.942,3.613,23.054,9.795,32.31c-1.635,6.716-2.471,13.634-2.471,20.619v4.119c-17.464,1.144-31.325,15.705-31.325,33.451   c0,18.304,14.742,33.221,32.975,33.524c3.334,16.961,11.657,32.523,24.254,44.945c1.461,1.441,3.363,2.16,5.266,2.16   c1.937,0,3.873-0.746,5.34-2.234c2.909-2.949,2.876-7.698-0.074-10.606c-13.823-13.631-21.436-31.829-21.436-51.241v-54.116   c0-2.288,0.116-4.566,0.329-6.829c9.872,7.659,22.249,12.235,35.682,12.235c11.398,0,22.261-3.224,31.698-9.366   c24.495,11.956,53.615,9.237,75.436-6.563c0.509,3.467,0.774,6.98,0.774,10.523v54.116c0,34.45-24.513,64.165-58.291,70.655   c-4.477,0.864-9.076,1.301-13.672,1.301c-10.678,0-20.95-2.28-30.531-6.776c-3.748-1.759-8.216-0.147-9.976,3.603   c-1.76,3.75-0.147,8.216,3.603,9.976c11.591,5.439,24.007,8.197,36.904,8.197c5.547,0,11.103-0.529,16.508-1.572   c35.177-6.76,62.025-34.364,68.784-68.504c17.278-1.336,30.931-15.812,30.931-33.427   C503.528,381.653,490.747,367.551,474.269,365.443z M284.023,398.691c0-9.469,7.145-17.289,16.325-18.387v34.934   c0,0.62,0.033,1.235,0.045,1.853C291.191,416.014,284.023,408.179,284.023,398.691z M456.739,332.444   c-18.656,18.655-47.656,22.53-70.526,9.423c-2.637-1.511-5.925-1.281-8.326,0.581c-7.658,5.94-16.831,9.081-26.526,9.081   c-23.895,0-43.335-19.44-43.335-43.335s19.44-43.335,43.335-43.335c13.108,0,25.371,5.846,33.645,16.04   c1.494,1.84,3.765,2.863,6.137,2.767c2.368-0.099,4.55-1.312,5.885-3.271c2.392-3.51,6.347-5.606,10.579-5.606   c5.222,0,9.87,3.131,11.843,7.976c0.948,2.327,2.998,4.025,5.461,4.523c2.462,0.496,5.012-0.271,6.789-2.048l30.006-30.006   C479.438,278.191,477.784,311.398,456.739,332.444z M474.236,416.721c0.009-0.495,0.033-0.986,0.033-1.482v-34.56   c8.163,1.938,14.26,9.269,14.26,18.014C488.528,407.452,482.415,414.794,474.236,416.721z" fill="#ffffff" data-original="#000000" style="" class=""/>
	<path d="M361.215,427.095c-2.93-2.929-7.678-2.929-10.607,0c-2.929,2.929-2.929,7.677,0,10.606   c10.118,10.118,23.408,15.177,36.698,15.177s26.58-5.059,36.698-15.177c2.929-2.929,2.929-7.677,0-10.606   c-2.93-2.929-7.678-2.929-10.607,0C399.01,441.481,375.602,441.481,361.215,427.095z" fill="#ffffff" data-original="#000000" style="" class=""/>
	<path d="M352.689,377.489c-4.143,0-7.5,3.358-7.5,7.5v19.532c0,4.142,3.357,7.5,7.5,7.5s7.5-3.358,7.5-7.5v-19.532   C360.189,380.847,356.832,377.489,352.689,377.489z" fill="#ffffff" data-original="#000000" style="" class=""/>
	<path d="M429.423,404.521v-19.532c0-4.142-3.357-7.5-7.5-7.5s-7.5,3.358-7.5,7.5v19.532c0,4.142,3.357,7.5,7.5,7.5   S429.423,408.663,429.423,404.521z" fill="#ffffff" data-original="#000000" style="" class=""/>
	<path d="M234.503,398.691c0-11.012-5.338-20.8-13.562-26.917l2.798-4.49c2.672-4.288,4.095-9.097,4.113-13.906   c0-0.01,0-0.098,0-0.108c0-3.754-0.73-7.417-2.141-10.826c3.53-4.826,5.482-10.688,5.482-16.76c0-9.742-5.05-18.717-13.025-23.877   c0.012-0.329,0.018-0.659,0.018-0.989c0-15.129-11.889-27.534-26.813-28.365c-3.526-11.687-14.416-20.244-27.202-20.244   c-1.72,0-3.438,0.159-5.127,0.47c-4.839-9.031-14.373-15.009-25.053-15.009c-5.641,0-11.096,1.679-15.709,4.741   c-4.613-3.062-10.067-4.741-15.708-4.741c-10.68,0-20.214,5.978-25.053,15.009c-1.689-0.311-3.407-0.47-5.127-0.47   c-12.786,0-23.676,8.557-27.202,20.244c-14.925,0.83-26.813,13.235-26.813,28.365c0,0.33,0.006,0.659,0.018,0.989   c-7.976,5.159-13.025,14.134-13.025,23.877c0,6.072,1.952,11.934,5.482,16.761c-1.41,3.409-2.141,7.072-2.141,10.825   c0,0.01,0,0.098,0,0.108c0.019,4.809,1.441,9.617,4.113,13.905l2.17,3.483C5.965,376.781,0,387.051,0,398.691   c0,18.311,14.753,33.232,32.995,33.524c7.919,39.847,43.146,69.978,85.281,69.978c5.554,0,11.109-0.529,16.508-1.572   c35.177-6.759,62.024-34.362,68.783-68.502C220.847,430.785,234.503,416.308,234.503,398.691z M15,398.691   c0-9.469,7.145-17.289,16.326-18.387v34.932c0,0.619,0.01,1.236,0.023,1.852C22.157,416,15,408.171,15,398.691z M190.239,415.235   c0,34.451-24.513,64.166-58.292,70.656c-4.471,0.863-9.07,1.301-13.671,1.301c-39.674,0-71.95-32.28-71.95-71.957v-39.945   c2.521,0.724,5.151,1.103,7.813,1.103c14.641,0,26.729-11.134,28.242-25.379c4.507-1.213,8.656-3.522,12.072-6.728   c2.367,0.633,4.813,0.951,7.318,0.951c6.031,0,11.757-1.868,16.51-5.277c4.754,3.409,10.479,5.277,16.511,5.277   c2.465,0,4.927-0.326,7.306-0.959c3.415,3.21,7.567,5.521,12.077,6.735c1.515,14.245,13.606,25.38,28.25,25.38   c2.662,0,5.292-0.379,7.813-1.103V415.235z M200.478,355.227c-2.874-1.127-6.143-0.379-8.238,1.884   c-2.561,2.762-6.046,4.283-9.813,4.283c-7.394,0-13.409-6.012-13.409-13.402c0-0.731,0.065-1.491,0.195-2.258   c0.386-2.275-0.299-4.601-1.854-6.305c-1.497-1.642-3.654-2.536-5.854-2.439c-4.393-0.017-8.501-2.187-10.997-5.812   c-2.14-3.106-6.252-4.14-9.606-2.416c-1.904,0.979-3.96,1.476-6.108,1.476c-4.165,0-8.025-1.892-10.589-5.191   c-1.422-1.828-3.607-2.897-5.922-2.897c-2.315,0-4.501,1.07-5.922,2.898c-2.563,3.299-6.423,5.19-10.588,5.19   c-2.148,0-4.204-0.497-6.11-1.477c-3.354-1.724-7.464-0.69-9.603,2.412c-2.497,3.62-6.596,5.79-11.003,5.816   c-2.2-0.088-4.354,0.798-5.85,2.439c-1.555,1.705-2.239,4.03-1.854,6.305c0.125,0.74,0.188,1.5,0.188,2.258   c0,7.39-6.013,13.402-13.402,13.402c-3.768,0-7.254-1.52-9.817-4.281c-2.098-2.26-5.365-3.006-8.237-1.878   c-2.871,1.127-4.759,3.897-4.759,6.981v3.025c-0.667,0.044-1.327,0.108-1.982,0.19l-3.788-6.079   c-1.198-1.923-1.836-4.009-1.844-6.081c0-2.744,0.827-5.384,2.394-7.635c2.174-3.126,1.661-7.385-1.193-9.905   c-2.887-2.549-4.542-6.21-4.542-10.046c0-5.592,3.524-10.648,8.77-12.581c3.615-1.332,5.633-5.188,4.667-8.918   c-0.284-1.097-0.429-2.23-0.429-3.366c0-7.394,6.015-13.409,13.408-13.409c1.011,0,2.02,0.116,3.001,0.345   c2.218,0.518,4.554-0.001,6.345-1.411c1.79-1.41,2.843-3.557,2.86-5.836c0.056-7.333,6.067-13.298,13.401-13.298   c2.177,0,4.261,0.511,6.195,1.518c2.098,1.094,4.592,1.131,6.724,0.103c2.133-1.029,3.653-3.004,4.104-5.329   c1.215-6.275,6.749-10.83,13.157-10.83c3.854,0,7.526,1.663,10.074,4.563c1.424,1.62,3.477,2.549,5.634,2.549   s4.21-0.929,5.634-2.549c2.548-2.9,6.221-4.563,10.075-4.563c6.408,0,11.942,4.555,13.157,10.83c0.45,2.324,1.971,4.3,4.104,5.329   c2.131,1.029,4.625,0.991,6.724-0.103c1.935-1.007,4.019-1.518,6.195-1.518c7.334,0,13.346,5.966,13.401,13.298   c0.018,2.279,1.07,4.426,2.86,5.836c1.791,1.409,4.124,1.928,6.345,1.411c0.98-0.229,1.99-0.345,3.001-0.345   c7.394,0,13.408,6.015,13.408,13.409c0,1.136-0.145,2.269-0.429,3.366c-0.966,3.73,1.052,7.585,4.667,8.918   c5.245,1.933,8.77,6.989,8.77,12.581c0,3.836-1.655,7.497-4.543,10.045c-2.854,2.521-3.367,6.781-1.192,9.906   c1.565,2.25,2.394,4.89,2.394,7.684c-0.008,2.022-0.646,4.108-1.844,6.031l-3.969,6.37c-0.595-0.109-1.195-0.202-1.8-0.28v-3.233   C205.239,359.124,203.35,356.353,200.478,355.227z M205.206,416.72c0.009-0.496,0.033-0.988,0.033-1.485v-34.559   c8.165,1.937,14.264,9.269,14.264,18.015C219.503,407.452,213.388,414.795,205.206,416.72z" fill="#ffffff" data-original="#000000" style="" class=""/>
	<path d="M134.851,426.588c-9.137,9.136-24.002,9.136-33.139,0c-2.93-2.929-7.678-2.929-10.607,0c-2.929,2.929-2.929,7.677,0,10.606   c7.493,7.493,17.335,11.239,27.177,11.239s19.684-3.746,27.177-11.239c2.929-2.929,2.929-7.677,0-10.606   C142.528,423.659,137.78,423.659,134.851,426.588z" fill="#ffffff" data-original="#000000" style="" class=""/>
	<path d="M91.165,404.52v-19.532c0-4.142-3.357-7.5-7.5-7.5s-7.5,3.358-7.5,7.5v19.532c0,4.142,3.357,7.5,7.5,7.5   S91.165,408.662,91.165,404.52z" fill="#ffffff" data-original="#000000" style="" class=""/>
	<path d="M152.897,377.488c-4.143,0-7.5,3.358-7.5,7.5v19.532c0,4.142,3.357,7.5,7.5,7.5s7.5-3.358,7.5-7.5v-19.532   C160.397,380.846,157.04,377.488,152.897,377.488z" fill="#ffffff" data-original="#000000" style="" class=""/>
	<path d="M225.132,174.787c7.552,7.551,17.47,11.326,27.388,11.326c9.919,0,19.837-3.775,27.389-11.326   c2.929-2.929,2.929-7.678,0-10.607c-2.929-2.928-7.677-2.929-10.607,0c-9.251,9.253-24.309,9.254-33.562,0   c-2.93-2.929-7.678-2.929-10.607,0C222.203,167.109,222.203,171.858,225.132,174.787z" fill="#ffffff" data-original="#000000" style="" class=""/>
	<path d="M218.479,146.358c4.143,0,7.5-3.358,7.5-7.5v-19.721c0-4.142-3.357-7.5-7.5-7.5s-7.5,3.358-7.5,7.5v19.721   C210.979,143,214.337,146.358,218.479,146.358z" fill="#ffffff" data-original="#000000" style="" class=""/>
	<path d="M286.563,146.358c4.143,0,7.5-3.358,7.5-7.5v-19.721c0-4.142-3.357-7.5-7.5-7.5s-7.5,3.358-7.5,7.5v19.721   C279.063,143,282.42,146.358,286.563,146.358z" fill="#ffffff" data-original="#000000" style="" class=""/>
	<path d="M135.62,185.589c8.039,10.442,23.784,15.335,50.798,15.721c16.094,18.442,39.759,30.115,66.102,30.115   c5.607,0,11.212-0.532,16.655-1.581c19.789-3.805,36.958-14.158,49.469-28.534c26.998-0.389,42.735-5.282,50.771-15.721   c9.96-12.937,5.367-30.301,0.049-50.406c-3.602-13.617-7.685-29.052-7.685-45.013c0-14.918-2.9-28.366-8.619-39.971   c-1.831-3.716-6.327-5.242-10.043-3.412c-3.716,1.831-5.243,6.327-3.412,10.043c4.694,9.525,7.074,20.742,7.074,33.34   c0,17.911,4.348,34.347,8.184,48.849c4.305,16.276,8.023,30.333,2.566,37.42c-3.906,5.075-13.344,8.208-28.083,9.375   c6.901-12.587,10.804-26.97,10.804-42.113v-37.435c0-4.125-3.331-7.476-7.456-7.5c-17.153-0.102-32.779-3.945-45.188-11.114   c-13.951-8.06-23.336-19.981-27.894-35.43c-0.94-3.189-3.868-5.378-7.192-5.378c-0.001,0-0.001,0-0.001,0   c-3.324,0-6.252,2.188-7.193,5.377c-4.561,15.45-13.945,27.371-27.896,35.431c-12.408,7.169-28.031,11.012-45.181,11.114   c-4.125,0.024-7.456,3.375-7.456,7.5V143.7c0,15.252,3.916,29.605,10.79,42.113c-14.735-1.167-24.171-4.3-28.078-9.375   c-5.456-7.087-1.738-21.144,2.567-37.42c3.836-14.501,8.184-30.938,8.184-48.849c0-24.641,8.996-43.539,26.738-56.17   c16.233-11.557,39.582-17.666,67.522-17.666c32.073,0,57.628,7.89,73.9,22.817c3.054,2.8,7.798,2.595,10.598-0.457   c2.8-3.052,2.595-7.797-0.457-10.597C317.471,10.588,288.41,1.333,252.518,1.333c-68.416,0-109.261,33.21-109.261,88.836   c0,15.961-4.083,31.396-7.685,45.013C130.254,155.288,125.661,172.652,135.62,185.589z M179.794,113.514   c33.147-2.053,59.024-16.529,72.725-40.21c13.698,23.681,39.578,38.157,72.732,40.21V143.7c0,34.818-24.774,64.852-58.911,71.414   c-4.514,0.87-9.163,1.311-13.82,1.311c-40.101,0-72.726-32.624-72.726-72.725V113.514z" fill="#ffffff" data-original="#000000" style="" class=""/>
	<path d="M373.359,96.301c0.461,3.806,3.696,6.599,7.436,6.599c0.301,0,0.605-0.018,0.911-0.055   c4.112-0.498,7.042-4.235,6.544-8.347l-1.666-13.754c41.967,33.281,70.517,81.383,79.189,134.255   c0.604,3.677,3.784,6.287,7.393,6.287c0.403,0,0.812-0.033,1.223-0.1c4.088-0.67,6.857-4.528,6.188-8.615   c-9.231-56.274-39.507-107.487-84.02-143.055l12.462-1.509c4.112-0.498,7.042-4.235,6.544-8.347   c-0.498-4.112-4.248-7.043-8.347-6.544l-31.075,3.763c-1.975,0.239-3.773,1.253-5.001,2.818c-1.228,1.565-1.782,3.554-1.543,5.529   L373.359,96.301z" fill="#ffffff" data-original="#000000" style="" class=""/>
	<path d="M23.227,255.663c1.302,1.504,3.148,2.428,5.133,2.571c0.179,0.013,0.357,0.019,0.536,0.019c1.798,0,3.543-0.646,4.91-1.831   l23.66-20.493c3.131-2.712,3.471-7.449,0.759-10.58c-2.713-3.131-7.45-3.47-10.579-0.759l-10.602,9.183   c5.04-66.537,40.397-127.035,96.779-164.159c3.459-2.278,4.417-6.929,2.139-10.389c-2.277-3.459-6.93-4.418-10.389-2.14   C65.599,96.575,27.85,160.797,22.152,231.511l-8.081-9.33c-2.712-3.132-7.448-3.471-10.579-0.759   c-3.131,2.712-3.471,7.448-0.759,10.579L23.227,255.663z" fill="#ffffff" data-original="#000000" style="" class=""/>
	<path d="M304.242,463.238l-24.2-19.854c-3.201-2.627-7.927-2.162-10.556,1.041c-2.627,3.202-2.16,7.928,1.042,10.555l11.444,9.389   c-22.912,3.103-46.537,2.564-69.157-1.635c-4.065-0.755-7.986,1.932-8.743,6.005c-0.756,4.073,1.933,7.987,6.005,8.743   c13.902,2.581,28.181,3.889,42.438,3.889c9.573,0,19.137-0.604,28.604-1.772l-7.285,8.88c-2.627,3.202-2.16,7.928,1.042,10.555   c1.395,1.145,3.079,1.702,4.753,1.702c2.168,0,4.319-0.936,5.803-2.743l19.854-24.2   C307.911,470.591,307.444,465.865,304.242,463.238z" fill="#ffffff" data-original="#000000" style="" class=""/>
</g>















</g></svg>
