<svg width="20" height="20" viewBox="0 0 20 20" fill="none" xmlns="http://www.w3.org/2000/svg">
<path d="M15.2499 4.75852C15.1728 4.68127 15.0813 4.61998 14.9805 4.57816C14.8797 4.53634 14.7716 4.51482 14.6624 4.51482C14.5533 4.51482 14.4452 4.53634 14.3444 4.57816C14.2436 4.61998 14.152 4.68127 14.0749 4.75852L9.99994 8.82519L5.92494 4.75019C5.84779 4.67303 5.7562 4.61183 5.6554 4.57008C5.55459 4.52833 5.44655 4.50684 5.33744 4.50684C5.22833 4.50684 5.12029 4.52833 5.01949 4.57008C4.91869 4.61183 4.82709 4.67303 4.74994 4.75019C4.67279 4.82734 4.61159 4.91893 4.56984 5.01973C4.52808 5.12054 4.50659 5.22858 4.50659 5.33769C4.50659 5.4468 4.52808 5.55484 4.56984 5.65564C4.61159 5.75644 4.67279 5.84803 4.74994 5.92519L8.82494 10.0002L4.74994 14.0752C4.67279 14.1523 4.61159 14.2439 4.56984 14.3447C4.52808 14.4455 4.50659 14.5536 4.50659 14.6627C4.50659 14.7718 4.52808 14.8798 4.56984 14.9806C4.61159 15.0814 4.67279 15.173 4.74994 15.2502C4.82709 15.3273 4.91869 15.3885 5.01949 15.4303C5.12029 15.472 5.22833 15.4935 5.33744 15.4935C5.44655 15.4935 5.55459 15.472 5.6554 15.4303C5.7562 15.3885 5.84779 15.3273 5.92494 15.2502L9.99994 11.1752L14.0749 15.2502C14.1521 15.3273 14.2437 15.3885 14.3445 15.4303C14.4453 15.472 14.5533 15.4935 14.6624 15.4935C14.7716 15.4935 14.8796 15.472 14.9804 15.4303C15.0812 15.3885 15.1728 15.3273 15.2499 15.2502C15.3271 15.173 15.3883 15.0814 15.43 14.9806C15.4718 14.8798 15.4933 14.7718 15.4933 14.6627C15.4933 14.5536 15.4718 14.4455 15.43 14.3447C15.3883 14.2439 15.3271 14.1523 15.2499 14.0752L11.1749 10.0002L15.2499 5.92519C15.5666 5.60852 15.5666 5.07519 15.2499 4.75852Z" fill="#F9F9F9"/>
</svg>
